<?xml version="1.0" encoding="utf-8"?>
<!-- Generator: Adobe Illustrator 24.2.1, SVG Export Plug-In . SVG Version: 6.00 Build 0)  -->
<svg version="1.1" id="Camada_1" xmlns="http://www.w3.org/2000/svg" xmlns:xlink="http://www.w3.org/1999/xlink" x="0px" y="0px"
	 viewBox="0 0 500 500" style="enable-background:new 0 0 500 500;" xml:space="preserve">
<style type="text/css">
	.st0{fill:#4180CB;}
</style>
<g>
	<path class="st0" d="M319.16,239.91c-7.17-15.96-13.8-32.12-20.45-48.26c-6.59-16.17-12.99-32.41-19.28-48.68
		c-6.28-16.28-12.43-32.6-18.47-48.97c-3.05-8.17-5.99-16.38-8.99-24.57l-8.83-24.63L255.31,45l-9.7,24.64l-9.87,24.57
		c-6.66,16.35-13.36,32.68-20.25,48.94c-6.88,16.26-13.87,32.48-21.06,48.62c-7.26,16.11-14.48,32.24-22.26,48.15
		c5.07-16.97,10.7-33.72,16.29-50.49c5.66-16.74,11.52-33.4,17.49-50.02c5.95-16.62,12.1-33.17,18.3-49.7l9.41-24.75l9.58-24.68
		l6.36-16.39l5.81,16.59l8.65,24.69c2.83,8.25,5.71,16.48,8.49,24.75c5.61,16.52,11.11,33.07,16.48,49.67
		c5.35,16.61,10.61,33.25,15.67,49.96C309.66,206.27,314.68,223,319.16,239.91z"/>
</g>
<g>
	<path class="st0" d="M319.16,260.07c-4.48,16.92-9.5,33.64-14.5,50.37c-5.06,16.71-10.31,33.35-15.67,49.96
		c-5.37,16.6-10.87,33.16-16.48,49.67c-2.78,8.27-5.66,16.5-8.49,24.75l-8.65,24.69l-5.81,16.59l-6.36-16.39l-9.58-24.68
		l-9.41-24.75c-6.19-16.53-12.34-33.08-18.3-49.7c-5.97-16.62-11.83-33.28-17.49-50.02c-5.59-16.77-11.22-33.52-16.29-50.49
		c7.78,15.91,15,32.04,22.26,48.15c7.19,16.14,14.18,32.36,21.06,48.62c6.9,16.25,13.6,32.59,20.25,48.94l9.87,24.57l9.7,24.64
		l-12.17,0.19l8.83-24.63c3-8.19,5.94-16.4,8.99-24.57c6.04-16.36,12.19-32.69,18.47-48.97c6.3-16.27,12.69-32.51,19.28-48.68
		C305.37,292.19,312,276.03,319.16,260.07z"/>
</g>
<g>
	<path class="st0" d="M172.16,52.49c14.18,31.45,27.45,63.25,40.38,95.18c12.99,31.9,25.52,63.98,37.79,96.16
		c12.25,32.19,24.22,64.48,35.73,96.95c11.57,32.45,22.8,65.02,33.1,97.95c-14.2-31.45-27.46-63.25-40.4-95.17
		c-12.99-31.9-25.52-63.98-37.78-96.17c-12.23-32.19-24.21-64.48-35.71-96.95C193.72,117.98,182.48,85.41,172.16,52.49z"/>
</g>
</svg>
